<?xml version="1.0" encoding="UTF-8"?>
<svg version="1.1" xmlns="http://www.w3.org/2000/svg" width="300" height="300">
<path d="M0 0 C99 0 198 0 300 0 C300 99 300 198 300 300 C201 300 102 300 0 300 C0 201 0 102 0 0 Z " fill="#010101" transform="translate(0,0)"/>
<path d="M0 0 C14.19 0 28.38 0 43 0 C42.11000293 5.33998242 40.72783525 8.92298074 38.25 13.5625 C35.11686188 19.60562819 32.49429364 25.65767552 30.14453125 32.0546875 C28.7491444 35.6455465 27.0239157 38.99146229 25.25 42.40625 C23.30187814 46.44860285 21.81578374 50.65495878 20.24609375 54.85546875 C19.15190073 57.61667684 17.94352044 60.18723751 16.5625 62.8125 C14.36929671 67.02126395 12.72329599 71.35271318 11.125 75.8125 C8.79077001 82.30259275 5.96718629 88.14699675 2.515625 94.1328125 C0.94239912 96.91074273 0.94239912 96.91074273 0.109375 99.7421875 C-0.8639896 102.60058918 -1.99195967 105.03733687 -3.37109375 107.7109375 C-6.0120677 112.88441855 -8.07392491 118.17335527 -10.0625 123.625 C-12.38286097 129.9657884 -14.89782065 136.00468935 -18 142 C-21.9863728 150.20035429 -25.77272907 158.46864953 -29 167 C-29.2990625 167.78761719 -29.598125 168.57523438 -29.90625 169.38671875 C-30.61066518 171.25537569 -31.3064071 173.12729917 -32 175 C-32.66 175 -33.32 175 -34 175 C-34.061875 175.99 -34.12375 176.98 -34.1875 178 C-35.02505186 182.89202198 -35.93231892 186.84572704 -40 190 C-45.25780248 191.15739737 -50.32238786 191.27643212 -55.69091797 191.20776367 C-58.2337328 191.18762881 -60.75973684 191.26831006 -63.30078125 191.35742188 C-75.09172325 191.50299804 -75.09172325 191.50299804 -80.03710938 187.60791016 C-82.28762146 184.84084933 -84.12971753 182.03074923 -86 179 C-87.3315047 177.66484054 -88.66437407 176.33103678 -90 175 C-90 174.34 -90 173.68 -90 173 C-90.66 173 -91.32 173 -92 173 C-93.32981093 171.50890766 -94.5869873 169.95293286 -95.8125 168.375 C-99.52784924 163.72034347 -103.41166076 159.32910954 -107.5 155 C-111.32268398 150.94186284 -115.01443446 146.85695692 -118.5 142.5 C-122.54079858 137.45086905 -126.87155976 132.73218249 -131.30859375 128.03320312 C-132.88210514 126.3642684 -134.44096942 124.68245585 -136 123 C-136.58217285 122.39349609 -137.1643457 121.78699219 -137.76416016 121.16210938 C-138.32280762 120.55689453 -138.88145508 119.95167969 -139.45703125 119.328125 C-139.96854736 118.78575195 -140.48006348 118.24337891 -141.00708008 117.68457031 C-142 116 -142 116 -141.71801758 113.9453125 C-136.96698457 101.07342164 -131.34126647 88.17523163 -125 76 C-121.28213657 77.23928781 -120.44896275 78.67470722 -118.0625 81.75 C-114.53570267 86.17713421 -110.87517152 90.37590786 -107 94.5 C-103.38923193 98.35306738 -99.92191091 102.24466923 -96.625 106.375 C-92.22046282 111.88677758 -87.41503036 116.97578594 -82.52001953 122.05029297 C-81.64192627 122.97092529 -81.64192627 122.97092529 -80.74609375 123.91015625 C-80.21685303 124.45808838 -79.6876123 125.00602051 -79.14233398 125.57055664 C-78 127 -78 127 -78 129 C-77.34 129 -76.68 129 -76 129 C-74.50618709 130.70218367 -73.07902984 132.46322891 -71.6875 134.25 C-68.72823767 138.04830615 -65.87034103 141.12293233 -62 144 C-62 143.01 -62 142.02 -62 141 C-61.34 141 -60.68 141 -60 141 C-59.82210937 139.70835937 -59.82210937 139.70835937 -59.640625 138.390625 C-58.05029721 129.97352427 -54.16586738 122.14072246 -50.24609375 114.58203125 C-48.33716289 110.62653501 -46.87275689 106.51748659 -45.3359375 102.40625 C-43.14494225 96.81985276 -40.57989023 91.41688292 -38 86 C-37.34 86 -36.68 86 -36 86 C-35.9175 85.030625 -35.835 84.06125 -35.75 83.0625 C-35.19548475 79.28580154 -33.91755887 76.21667068 -32.30078125 72.77734375 C-30.65156637 69.25604712 -29.11049911 65.69167643 -27.5625 62.125 C-25.60173062 57.62685555 -23.61975835 53.14257636 -21.5625 48.6875 C-19.96278706 45.21079054 -18.4517172 41.70597275 -16.984375 38.171875 C-16.62657959 37.31118408 -16.26878418 36.45049316 -15.90014648 35.5637207 C-15.18418276 33.83496161 -14.47263464 32.1043661 -13.76586914 30.37182617 C-13.43707764 29.57752197 -13.10828613 28.78321777 -12.76953125 27.96484375 C-12.47667236 27.2493335 -12.18381348 26.53382324 -11.88208008 25.79663086 C-11 24 -11 24 -9 22 C-8.31550239 20.24284778 -8.31550239 20.24284778 -7.75 18.1875 C-5.64351712 11.9432829 -2.76157486 5.98341221 0 0 Z " fill="#FAFAFA" transform="translate(244,62)"/>
<path d="M0 0 C1.69169548 -0.02652879 3.38323167 -0.06736843 5.07421875 -0.12304688 C19.07613517 -0.57870618 19.07613517 -0.57870618 23.49975586 1.90209961 C25.2647165 3.65623371 26.58865149 5.37011734 27.92822266 7.45996094 C28.65912109 8.23984375 29.39001953 9.01972656 30.14306641 9.82324219 C30.99578125 10.78810547 30.99578125 10.78810547 31.86572266 11.77246094 C32.45224609 12.42859375 33.03876953 13.08472656 33.64306641 13.76074219 C34.92822266 15.45996094 34.92822266 15.45996094 34.92822266 17.45996094 C35.58822266 17.45996094 36.24822266 17.45996094 36.92822266 17.45996094 C38.30034567 18.99191366 39.59976725 20.58917174 40.86572266 22.20996094 C44.29425271 26.49976424 47.81923807 30.62159808 51.55322266 34.64746094 C52.26091797 35.41195557 52.26091797 35.41195557 52.98291016 36.19189453 C53.44310547 36.68898926 53.90330078 37.18608398 54.37744141 37.69824219 C58.67491001 42.35109104 62.80268202 47.14108559 66.91650391 51.95605469 C67.45283447 52.58334473 67.98916504 53.21063477 68.54174805 53.85693359 C69.61392759 55.1119419 70.68477895 56.36808639 71.75415039 57.62548828 C72.24987549 58.20637207 72.74560059 58.78725586 73.25634766 59.38574219 C73.92005371 60.16558472 73.92005371 60.16558472 74.59716797 60.96118164 C75.93802502 62.51625084 75.93802502 62.51625084 77.59521484 64.02709961 C78.92822266 65.45996094 78.92822266 65.45996094 78.92822266 67.45996094 C79.58822266 67.45996094 80.24822266 67.45996094 80.92822266 67.45996094 C83.79003132 70.31332769 85.8676833 73.12809507 86.05322266 77.20996094 C84.67881594 81.18046922 82.97780911 84.93483765 81.18603516 88.73339844 C80.15880863 90.96011928 79.25371395 93.15427836 78.42822266 95.45996094 C76.87561428 99.76978763 74.94617023 103.89109781 73.01416016 108.04199219 C71.8519972 110.52164429 71.8519972 110.52164429 70.92822266 113.45996094 C69.60822266 113.12996094 68.28822266 112.79996094 66.92822266 112.45996094 C66.92822266 111.79996094 66.92822266 111.13996094 66.92822266 110.45996094 C66.36748047 110.23566406 65.80673828 110.01136719 65.22900391 109.78027344 C62.24316437 108.06683751 60.39468229 105.91180033 58.11572266 103.33496094 C57.67558838 102.84068604 57.2354541 102.34641113 56.78198242 101.8371582 C55.49081261 100.3839149 54.20932416 98.92208765 52.92822266 97.45996094 C52.30431641 96.7496875 51.68041016 96.03941406 51.03759766 95.30761719 C49.93252998 94.04505154 48.83089792 92.77946968 47.73291016 91.51074219 C46.34060404 89.92857615 44.9244222 88.36739999 43.49853516 86.81542969 C42.67095703 85.914375 41.84337891 85.01332031 40.99072266 84.08496094 C39.8325 82.83585937 39.8325 82.83585937 38.65087891 81.56152344 C36.92822266 79.45996094 36.92822266 79.45996094 36.92822266 77.45996094 C36.26822266 77.45996094 35.60822266 77.45996094 34.92822266 77.45996094 C33.47509766 75.79980469 33.47509766 75.79980469 31.67822266 73.39746094 C27.38026726 67.86700362 22.67647933 62.80172642 17.85302734 57.72729492 C15.33385522 55.06953325 12.91371615 52.44172912 10.63134766 49.57324219 C9.0989686 47.372088 9.0989686 47.372088 6.92822266 46.45996094 C6.82509766 47.14058594 6.72197266 47.82121094 6.61572266 48.52246094 C5.78097247 52.08912082 4.43349511 55.12218288 2.92822266 58.45996094 C2.26822266 58.45996094 1.60822266 58.45996094 0.92822266 58.45996094 C0.88697266 59.36746094 0.84572266 60.27496094 0.80322266 61.20996094 C0.12249377 66.09345081 -2.27105391 70.09845122 -4.52880859 74.42089844 C-6.25235326 77.81562691 -7.63401597 81.25780368 -8.99755859 84.80761719 C-10.7544402 89.14551758 -12.79157296 93.3521897 -14.80224609 97.57714844 C-15.82804067 99.9064912 -16.5740979 101.97755986 -17.07177734 104.45996094 C-17.73177734 104.45996094 -18.39177734 104.45996094 -19.07177734 104.45996094 C-19.15427734 105.26433594 -19.23677734 106.06871094 -19.32177734 106.89746094 C-20.11190862 110.65058452 -21.40844531 113.67774353 -23.01708984 117.13574219 C-24.55080586 120.51559786 -25.80370321 123.97275707 -27.07177734 127.45996094 C-27.73177734 127.45996094 -28.39177734 127.45996094 -29.07177734 127.45996094 C-29.16458984 128.63558594 -29.16458984 128.63558594 -29.25927734 129.83496094 C-30.170889 133.90215142 -31.75623445 137.05131372 -33.72021484 140.70214844 C-35.11099511 143.53998332 -36.19693596 146.394828 -37.28173828 149.35888672 C-38.56796461 152.7795492 -40.03554878 156.11672788 -41.50927734 159.45996094 C-41.81784668 160.16419189 -42.12641602 160.86842285 -42.44433594 161.59399414 C-43.94409868 164.99390342 -45.47553742 168.35251595 -47.19677734 171.64746094 C-49.54166719 176.16467298 -51.23750304 180.94248585 -53.02099609 185.70214844 C-54.07177734 188.45996094 -54.07177734 188.45996094 -55.07177734 190.45996094 C-69.26177734 190.45996094 -83.45177734 190.45996094 -98.07177734 190.45996094 C-97.36411985 186.92167348 -96.87082307 184.67413077 -95.43505859 181.56152344 C-95.10820068 180.84262939 -94.78134277 180.12373535 -94.44458008 179.38305664 C-94.09468018 178.62468506 -93.74478027 177.86631348 -93.38427734 177.08496094 C-90.78610745 171.36016998 -88.29726308 165.62846767 -86.00927734 159.77246094 C-83.76856538 154.07655898 -81.30278245 148.54647856 -78.68139648 143.02050781 C-74.67561643 134.55930803 -71.08705974 125.92155484 -67.50927734 117.27246094 C-65.9746223 113.56980116 -64.37878123 109.91041071 -62.69677734 106.27246094 C-60.56170649 101.63535393 -58.61574985 96.93895184 -56.69677734 92.20996094 C-54.21715189 86.1168211 -51.57916171 80.13191034 -48.76538086 74.18652344 C-46.49568412 69.38676575 -44.29358867 64.56040522 -42.13427734 59.70996094 C-41.80484131 58.97011963 -41.47540527 58.23027832 -41.13598633 57.46801758 C-39.33009291 53.38491843 -37.57155137 49.28538487 -35.85693359 45.16308594 C-35.495271 44.29393555 -35.1336084 43.42478516 -34.76098633 42.52929688 C-34.06421235 40.84706485 -33.37213056 39.16287982 -32.68530273 37.4765625 C-32.2153186 36.33912598 -32.2153186 36.33912598 -31.73583984 35.17871094 C-31.4620752 34.50775391 -31.18831055 33.83679688 -30.90625 33.14550781 C-30.07177734 31.45996094 -30.07177734 31.45996094 -28.07177734 29.45996094 C-27.10144249 27.01074223 -26.19534531 24.56823036 -25.32177734 22.08496094 C-17.39608043 0.20825584 -17.39608043 0.20825584 0 0 Z " fill="#FAFAFA" transform="translate(107.07177734375,61.5400390625)"/>
<path d="M0 0 C0.99 0.33 1.98 0.66 3 1 C2.34 2.32 1.68 3.64 1 5 C0.01 4.34 -0.98 3.68 -2 3 C-2.33 3.99 -2.66 4.98 -3 6 C-2.625 3.5625 -2.625 3.5625 -2 1 C-1.34 0.67 -0.68 0.34 0 0 Z " fill="#CECECE" transform="translate(116,105)"/>
</svg>
